# xmcd
#
# Track frame offsets: 
#        150
#        10893
#        26155
#        63160
#        79295
#        97245
#        105323
#        128185
#        141228
#        154965
#        171623
#        186758
#        198485
#        225070
#        238608
#
# Disc length: 3373 seconds
#
# Revision: 3
# Processed by: cddbd v1.5.2PL0 Copyright (c) Steve Scherf et al.
# Submitted via: ExactAudioCopy v0.95b4
#
DISCID=c90d2b0f
DTITLE=Bluesbox - Bluesbox - Live
DYEAR=1993
DGENRE=Blues
TTITLE0=Tell Mama
TTITLE1=Maybe Someday Baby
TTITLE2=Personal Manger
TTITLE3=Swamp Music
TTITLE4=Bring It On Home
TTITLE5=6-3-4-5-7-8-9
TTITLE6=Taking Care Of The Business
TTITLE7=Rockett
TTITLE8=Fool In Love
TTITLE9=I Got Dreams To Remember
TTITLE10=Dusty My Broom
TTITLE11=Soul Man
TTITLE12=Feelin Alright
TTITLE13=Take Me To The River
TTITLE14=Sweet Home Chicago
EXTD=
EXTT0=
EXTT1=
EXTT2=
EXTT3=
EXTT4=
EXTT5=
EXTT6=
EXTT7=
EXTT8=
EXTT9=
EXTT10=
EXTT11=
EXTT12=
EXTT13=
EXTT14=
PLAYORDER=
